<svg xmlns="http://www.w3.org/2000/svg" version="1.1" viewBox="0 0 1184 884" width="1184.0pt" height="884.0pt">
    <path d="M 562.56 37.43 C 566.21 40.32 567.25 45.52 565.98 49.84 C 564.29 54.04 559.62 56.08 558.80 60.83 C 557.09 70.09 556.58 80.46 559.48 89.53 C 560.43 92.84 562.82 94.69 565.68 96.32 C 571.58 99.68 577.31 103.01 582.29 107.70 C 586.62 111.70 589.26 116.43 592.93 121.18 C 595.97 117.16 598.70 112.71 602.24 109.23 C 607.01 104.52 612.47 100.56 618.41 97.43 C 621.32 95.73 624.61 94.33 625.98 91.02 C 629.10 83.86 628.98 74.91 628.33 67.28 C 627.84 63.46 627.55 59.14 624.80 56.20 C 622.06 52.95 619.13 50.71 619.42 45.99 C 619.56 38.89 625.93 33.77 632.89 35.00 C 638.90 35.96 642.84 41.99 641.97 47.87 C 641.19 50.82 639.22 53.43 638.32 56.27 C 637.96 58.94 638.73 61.84 639.10 64.50 C 640.35 71.83 639.22 78.66 639.76 86.15 C 646.74 83.58 653.06 78.47 658.74 73.75 C 662.77 70.15 666.61 66.19 669.91 61.91 C 672.91 58.31 670.75 52.22 673.15 48.12 C 676.29 42.98 683.44 41.25 688.57 44.45 C 693.92 47.77 695.31 55.52 691.51 60.52 C 689.64 63.23 685.77 63.80 682.89 65.02 C 679.81 65.94 677.81 69.48 675.80 71.82 C 665.44 84.77 652.16 92.98 637.81 100.81 C 629.08 105.65 620.29 108.94 613.00 116.00 C 605.14 123.56 601.43 134.21 601.14 144.96 C 600.90 155.63 601.27 166.32 600.91 177.00 C 600.90 180.45 600.65 184.18 601.48 187.55 C 604.19 190.49 608.45 191.80 611.37 194.62 C 619.90 202.78 621.19 216.89 614.64 226.64 C 611.34 232.01 606.41 234.10 601.33 237.37 C 600.76 244.59 601.27 251.77 601.03 259.00 C 600.86 263.75 600.79 268.49 601.25 273.24 C 604.32 271.74 607.10 269.82 609.96 267.98 C 614.18 265.30 618.90 264.39 623.26 262.19 C 626.16 260.73 627.69 257.90 629.16 255.14 C 631.91 249.67 634.15 243.92 636.14 238.13 C 642.90 217.45 647.68 196.92 646.32 174.97 C 646.05 171.44 645.88 167.65 644.71 164.29 C 643.18 160.93 639.32 158.57 637.90 155.07 C 635.92 149.11 639.69 141.93 646.04 140.82 C 651.84 139.63 657.95 142.79 659.34 148.74 C 660.46 152.69 658.48 155.51 657.11 159.03 C 655.41 162.45 656.87 167.10 657.20 170.77 C 658.98 186.24 657.14 202.57 653.77 217.73 C 651.76 226.62 649.40 235.59 646.04 244.06 C 644.75 247.34 643.71 250.64 642.98 254.09 C 650.54 251.51 657.09 245.22 662.77 239.77 C 665.83 236.42 669.92 232.97 671.68 228.73 C 671.59 224.62 669.27 220.32 669.65 215.97 C 670.03 211.96 672.14 207.82 675.19 205.16 C 678.04 202.69 682.09 201.84 685.02 199.96 C 685.99 199.29 686.37 197.81 686.74 196.76 C 687.92 192.64 688.30 188.26 688.45 184.00 C 688.68 172.16 687.61 159.36 689.73 147.73 C 690.01 145.59 690.57 143.22 690.22 141.06 C 689.46 138.13 687.30 135.09 686.90 131.99 C 686.80 128.04 688.62 124.16 692.08 122.13 C 696.78 119.35 703.00 120.28 706.53 124.48 C 709.03 127.26 709.16 131.22 708.52 134.71 C 707.58 138.75 702.02 141.08 701.22 145.18 C 699.34 153.14 699.31 161.88 699.41 170.00 C 699.49 175.74 699.27 181.45 699.62 187.19 C 704.28 184.52 707.14 180.61 711.02 177.01 C 717.40 170.98 723.28 164.58 728.64 157.62 C 732.21 153.37 729.54 146.43 733.25 142.26 C 737.07 137.55 744.57 136.73 749.08 140.90 C 753.24 144.66 754.02 151.11 750.64 155.63 C 747.22 160.60 740.66 158.83 737.16 164.15 C 727.18 177.92 713.57 187.70 703.74 201.75 C 702.84 203.13 701.85 204.67 701.48 206.29 C 701.56 208.94 702.87 211.57 703.37 214.18 C 704.78 220.47 702.67 227.47 697.35 231.30 C 695.11 233.03 691.95 234.07 690.09 236.17 C 688.49 240.42 688.63 245.51 688.48 250.00 C 688.47 258.69 688.94 268.11 692.71 276.08 C 695.09 271.20 696.85 266.07 699.16 261.15 C 707.18 244.24 717.59 228.12 730.62 214.62 C 735.42 209.61 740.62 205.27 746.31 201.31 C 750.64 198.43 751.09 193.93 754.25 190.27 C 758.09 186.51 764.98 186.45 768.94 190.07 C 770.56 191.59 771.68 193.70 772.25 195.84 C 773.58 200.93 770.41 206.73 765.46 208.46 C 762.30 209.24 758.66 208.39 755.43 208.80 C 753.46 209.30 751.67 210.86 750.08 212.07 C 743.85 217.20 737.84 222.44 732.69 228.68 C 724.56 238.56 717.59 249.44 711.90 260.89 C 707.53 270.18 703.13 280.05 701.06 290.14 C 700.03 294.48 702.56 297.96 704.27 301.72 C 706.72 306.36 707.02 311.34 708.87 316.21 C 714.90 311.61 719.91 305.63 725.37 300.38 C 728.03 297.53 731.45 294.95 733.45 291.60 C 733.47 288.73 732.53 285.83 732.23 282.96 C 731.37 276.87 733.04 270.57 736.55 265.54 C 741.18 259.04 749.00 254.88 756.98 254.64 C 761.36 254.51 765.49 256.30 769.76 256.49 C 772.04 255.55 773.93 253.39 775.69 251.69 C 782.05 245.04 788.52 238.53 795.13 232.13 C 800.17 227.17 805.04 222.74 808.40 216.39 C 812.83 208.28 813.66 198.93 811.94 189.94 C 809.51 178.46 804.96 168.02 802.25 156.76 C 799.98 147.76 798.57 138.29 798.69 129.00 C 798.71 124.33 799.78 119.65 799.59 114.99 C 799.31 110.86 795.84 106.31 797.25 102.26 C 798.61 97.04 803.54 93.68 808.91 94.20 C 815.64 94.35 819.96 101.17 818.52 107.47 C 817.66 112.66 810.85 114.40 810.55 119.53 C 809.29 132.64 810.34 146.54 815.06 158.93 C 820.20 154.22 824.09 148.91 829.69 144.70 C 832.06 142.81 834.87 141.16 836.89 138.90 C 839.03 135.84 839.22 130.68 841.99 127.98 C 844.91 125.00 849.47 124.64 853.28 125.81 C 857.92 127.42 860.77 132.17 860.64 136.99 C 860.63 141.78 856.89 146.58 851.99 147.04 C 848.24 147.68 844.28 146.74 841.19 149.17 C 834.54 154.20 827.66 160.21 823.47 167.51 C 821.87 170.38 820.35 173.46 821.08 176.84 C 822.24 182.63 824.38 188.08 824.91 194.03 C 825.89 201.29 824.23 207.79 823.23 214.88 C 830.97 213.91 838.13 212.16 846.02 213.06 C 852.05 213.39 857.66 215.30 863.54 216.33 C 866.95 216.89 869.77 215.30 872.55 213.55 C 877.80 210.03 882.33 205.22 886.49 200.49 C 888.48 198.04 890.93 195.30 891.14 192.02 C 891.70 188.21 890.84 183.79 893.76 180.79 C 897.68 176.37 904.20 175.49 909.06 178.93 C 915.02 182.84 915.09 192.28 909.58 196.58 C 906.87 198.40 903.31 198.93 900.55 200.65 C 898.22 202.54 896.55 205.34 894.65 207.65 C 890.51 213.07 885.27 217.05 880.76 222.15 C 886.82 224.79 893.04 225.62 899.55 226.44 C 906.12 227.10 913.16 227.57 919.71 226.58 C 923.04 226.34 924.87 223.22 927.24 221.24 C 931.55 216.87 939.65 218.00 942.98 223.03 C 946.94 228.74 944.72 237.71 937.77 239.87 C 932.12 242.06 927.75 237.02 922.03 237.39 C 915.98 237.63 910.11 238.74 904.00 238.14 C 886.89 237.26 871.40 231.21 854.82 227.12 C 847.74 225.25 839.95 224.55 832.73 225.93 C 822.03 228.28 813.06 235.89 805.68 243.62 C 798.86 251.13 791.66 258.31 784.40 265.40 C 783.35 266.51 782.09 267.76 781.52 269.20 C 781.71 272.83 783.07 276.34 783.23 280.00 C 783.38 291.99 774.61 303.21 762.72 305.46 C 756.51 306.72 751.30 304.90 745.39 303.45 C 739.01 309.01 733.45 315.47 727.28 321.28 C 724.85 323.50 722.72 325.88 720.92 328.65 C 726.38 330.09 731.62 330.71 736.74 333.29 C 740.23 334.85 743.79 337.22 747.79 336.51 C 752.12 335.82 756.35 333.98 760.45 332.46 C 786.31 322.41 810.09 307.33 827.55 285.49 C 831.72 280.88 827.13 274.02 831.01 269.00 C 834.96 263.13 844.36 262.82 848.76 268.25 C 852.12 272.46 852.05 278.48 848.64 282.63 C 845.99 285.52 840.99 286.26 838.36 289.33 C 835.54 292.55 833.22 296.17 830.34 299.35 C 820.10 311.05 807.01 320.69 793.82 328.82 C 784.11 334.86 773.34 338.82 763.39 344.31 C 765.56 345.48 767.75 346.49 770.20 346.88 C 780.08 348.63 790.77 348.89 800.56 346.56 C 803.54 346.15 804.50 342.07 805.98 339.87 C 808.78 334.23 814.93 331.47 821.01 331.45 C 824.34 331.51 827.60 333.13 830.77 334.04 C 833.46 335.17 836.31 332.86 838.48 331.49 C 848.21 324.28 856.00 314.10 865.40 306.38 C 869.00 303.21 873.00 300.63 876.80 297.74 C 880.05 295.39 880.59 290.26 883.44 287.46 C 887.66 283.79 894.18 283.80 898.18 287.82 C 903.05 292.49 902.23 300.94 896.73 304.76 C 892.06 308.44 885.72 304.49 881.01 307.98 C 869.83 315.74 860.25 326.16 851.03 336.11 C 864.75 337.13 879.27 338.00 892.90 335.86 C 897.63 335.26 899.76 329.46 904.18 328.07 C 909.49 326.47 915.56 329.19 917.55 334.44 C 920.07 340.42 916.53 348.08 909.99 349.33 C 905.25 350.55 900.61 346.16 896.02 346.32 C 892.33 346.40 888.66 347.23 884.96 347.50 C 872.97 348.52 860.90 347.12 848.96 347.78 C 845.67 348.11 841.80 348.21 838.83 349.76 C 836.83 352.72 835.86 356.63 833.56 359.56 C 830.81 363.05 826.42 365.09 822.05 365.50 C 817.83 365.85 813.92 363.76 810.06 363.38 C 807.45 363.86 805.04 366.40 803.02 368.02 C 795.66 374.55 787.20 382.64 783.88 392.10 C 788.33 391.09 792.49 389.34 796.74 387.74 C 812.00 382.31 828.00 378.73 844.17 377.54 C 853.14 377.12 862.54 376.91 871.38 378.70 C 873.99 379.12 876.62 379.89 879.21 379.02 C 883.06 377.93 886.17 376.18 890.24 377.75 C 895.81 379.75 898.28 386.12 896.57 391.60 C 894.96 397.18 888.76 400.59 883.17 398.95 C 877.71 397.53 876.37 390.64 870.89 390.06 C 842.86 385.33 814.12 392.14 788.46 403.46 C 784.75 405.19 780.53 406.74 777.36 409.37 C 774.96 411.73 774.14 415.85 772.89 418.92 C 770.99 424.41 767.88 428.83 765.12 433.88 C 773.12 434.50 780.97 434.05 789.00 434.25 C 792.55 434.35 796.05 434.17 799.58 433.76 C 802.66 428.90 805.03 424.26 809.99 420.99 C 818.50 415.05 830.18 415.47 838.56 421.43 C 843.24 424.60 845.40 429.23 848.33 433.87 C 851.22 434.17 854.10 434.39 857.01 434.35 C 869.67 434.18 882.34 434.30 895.01 434.20 C 901.64 434.15 908.08 433.16 913.97 429.97 C 921.13 426.16 926.21 420.15 930.24 413.23 C 936.91 401.78 942.43 390.01 950.01 379.02 C 955.56 370.71 962.50 363.50 970.33 357.30 C 974.13 354.42 973.96 350.19 976.49 346.48 C 980.07 342.18 986.86 341.22 991.39 344.64 C 997.57 348.57 997.27 359.27 990.91 362.92 C 986.76 365.90 980.55 362.82 976.86 365.86 C 968.17 372.58 961.98 380.95 956.04 390.06 C 954.74 392.14 953.81 394.37 952.91 396.64 C 959.52 396.90 965.56 396.24 971.96 397.16 C 975.00 397.50 978.11 398.33 981.16 398.25 C 984.49 397.57 987.53 394.96 990.99 394.52 C 997.02 394.06 1002.66 398.94 1002.72 405.07 C 1003.37 411.57 997.60 417.46 991.06 416.80 C 984.83 416.89 983.25 409.90 977.07 408.89 C 967.82 407.03 957.65 406.80 948.55 409.55 C 945.16 410.55 943.92 413.48 942.26 416.28 C 939.18 422.05 935.78 427.49 931.27 432.27 C 927.74 436.05 923.01 438.92 918.92 442.21 C 921.04 444.09 923.28 445.80 925.58 447.45 C 931.49 451.53 935.86 458.38 939.56 464.43 C 941.52 467.51 943.14 471.66 946.07 473.91 C 950.28 476.43 956.20 476.67 960.99 476.82 C 966.30 476.85 971.82 477.01 977.06 476.00 C 981.50 475.26 984.00 470.70 988.02 468.92 C 993.39 467.04 999.82 469.90 1001.75 475.32 C 1004.27 481.71 1000.36 490.42 992.94 490.71 C 987.99 491.33 985.40 488.06 981.13 486.74 C 977.79 486.49 974.30 487.49 970.96 487.79 C 964.76 488.69 958.93 487.56 952.70 487.80 C 953.57 490.03 954.46 492.22 955.71 494.26 C 961.65 503.68 967.97 512.29 976.96 519.06 C 980.77 522.24 986.69 518.91 990.91 522.08 C 997.11 525.72 997.51 535.70 991.99 539.97 C 987.76 543.55 980.77 542.89 976.93 539.06 C 974.74 536.38 974.48 532.25 972.47 529.46 C 970.30 527.03 967.40 525.22 964.96 523.04 C 955.82 515.22 948.85 504.56 942.67 494.33 C 937.01 485.03 932.51 474.60 926.18 465.82 C 922.07 460.11 916.63 455.48 909.99 452.99 C 901.13 449.38 890.49 450.78 881.00 450.59 C 870.07 450.83 859.08 450.13 848.18 450.85 C 846.23 453.95 844.44 457.28 842.09 460.09 C 833.85 469.12 818.63 470.62 808.94 463.05 C 805.53 460.59 803.49 457.24 801.30 453.73 C 800.43 452.55 799.64 450.80 797.97 450.73 C 794.36 450.28 790.63 450.56 787.00 450.58 C 779.62 450.76 772.33 450.30 764.95 450.90 C 767.59 455.94 770.71 460.01 772.56 465.39 C 773.63 468.19 774.37 471.47 776.09 473.94 C 777.96 476.05 780.91 477.35 783.39 478.63 C 795.54 484.40 808.27 489.53 821.38 492.65 C 836.03 495.77 850.50 497.61 865.46 495.56 C 868.93 494.98 873.68 495.05 876.02 492.05 C 878.14 489.94 880.16 486.86 883.20 486.14 C 888.21 484.63 893.83 487.26 895.97 492.00 C 898.44 497.34 896.67 504.53 891.07 507.05 C 887.07 508.87 883.76 507.38 879.90 506.17 C 875.57 504.41 870.48 506.38 865.90 506.81 C 844.47 509.19 823.42 505.81 803.12 498.90 C 796.54 496.78 790.43 493.87 783.76 492.19 C 787.11 501.02 794.17 508.65 801.04 514.94 C 803.80 517.24 806.74 520.35 810.18 521.53 C 813.15 521.31 816.02 520.07 818.97 519.63 C 824.09 518.72 829.66 521.12 833.10 524.90 C 835.81 527.91 836.72 532.05 838.92 535.11 C 845.97 537.77 854.56 537.43 862.00 537.17 C 872.85 536.26 883.72 536.84 894.47 538.50 C 900.99 539.87 904.57 533.80 910.88 535.92 C 916.87 537.75 920.28 544.85 917.72 550.62 C 915.75 555.59 910.33 558.30 905.16 556.96 C 901.69 556.21 899.61 553.10 897.05 550.92 C 895.36 549.29 893.24 549.20 891.03 548.82 C 877.76 547.24 864.17 547.08 850.90 548.84 C 854.70 553.15 859.01 556.89 863.04 560.96 C 868.82 566.81 875.01 572.63 881.91 577.14 C 885.88 580.01 892.23 576.75 896.33 579.67 C 901.55 583.00 903.25 590.44 899.48 595.49 C 895.82 600.84 887.58 601.44 883.02 596.98 C 881.42 595.14 880.58 592.50 879.50 590.33 C 878.12 586.70 873.64 584.64 870.72 582.27 C 858.45 573.30 849.92 561.11 837.45 552.52 C 835.98 551.63 834.00 550.17 832.20 550.61 C 829.40 551.17 826.75 552.37 823.96 553.01 C 818.79 554.38 812.91 552.55 809.03 548.96 C 806.09 546.20 804.93 542.36 802.52 539.44 C 800.85 538.20 798.30 537.99 796.30 537.60 C 785.51 536.04 773.78 536.33 763.43 539.99 C 768.60 543.45 774.31 545.33 779.79 548.20 C 788.53 552.55 797.04 557.30 804.98 563.03 C 817.18 571.95 828.35 581.44 836.96 594.02 C 839.23 597.61 842.62 598.99 846.17 600.95 C 852.06 604.10 852.80 612.73 848.55 617.55 C 843.93 622.82 834.51 622.19 830.92 616.05 C 827.86 611.41 831.57 605.05 828.26 600.74 C 825.79 597.00 822.71 593.62 819.59 590.41 C 813.56 584.33 807.34 578.61 800.33 573.66 C 786.33 563.75 771.14 555.68 754.93 550.05 C 751.68 548.98 747.80 547.81 744.38 548.45 C 741.23 549.12 738.18 550.94 735.22 552.19 C 730.67 554.23 725.76 554.92 720.87 556.05 C 725.57 562.22 731.59 567.43 736.95 573.05 C 739.80 575.73 742.58 579.32 746.13 581.02 C 751.20 580.43 755.73 578.67 760.98 579.38 C 773.95 580.74 783.89 593.13 783.08 606.01 C 782.80 609.60 781.49 613.12 781.45 616.70 C 782.19 618.37 783.65 619.79 784.89 621.10 C 793.95 630.05 802.97 639.03 811.92 648.09 C 819.61 655.84 829.92 660.91 840.98 660.73 C 851.22 660.94 861.10 656.70 870.92 653.96 C 886.19 649.65 902.03 645.58 918.02 647.37 C 921.46 647.63 924.74 648.28 928.03 646.96 C 931.73 645.74 934.61 643.76 938.61 645.39 C 945.85 647.76 947.96 657.56 943.16 663.12 C 939.99 666.82 934.45 667.66 930.04 665.98 C 927.20 664.49 925.23 661.22 922.60 659.40 C 920.67 658.37 918.16 658.25 916.02 658.03 C 908.85 657.52 901.57 658.18 894.52 659.50 C 889.68 660.48 885.02 661.17 880.68 663.70 C 885.52 668.82 890.94 673.12 895.12 678.87 C 897.12 681.24 899.08 684.76 902.27 685.51 C 904.84 686.45 908.17 686.90 910.32 688.65 C 914.40 692.23 914.90 699.37 911.65 703.63 C 907.66 709.38 897.47 709.24 893.64 703.37 C 890.43 698.85 892.90 693.27 889.28 688.75 C 884.01 681.91 877.73 675.15 870.23 670.75 C 864.66 667.38 858.29 670.37 852.52 671.49 C 842.80 673.87 833.56 672.52 823.84 671.16 C 824.27 678.10 825.65 684.15 824.90 691.02 C 824.50 695.84 823.33 700.47 822.12 705.14 C 821.23 708.82 820.43 712.53 821.83 716.20 C 824.34 722.52 829.18 727.43 834.34 731.67 C 837.27 734.02 840.11 736.84 843.45 738.58 C 846.94 739.91 851.29 738.89 854.77 740.32 C 860.32 743.30 861.94 750.42 858.87 755.80 C 855.64 762.32 845.17 762.50 840.78 757.24 C 838.83 754.49 839.03 750.42 837.26 747.63 C 834.77 745.16 831.53 743.43 828.82 741.19 C 823.62 737.24 819.91 732.02 814.98 727.79 C 810.16 739.84 809.50 754.03 810.32 766.85 C 810.38 771.33 814.96 773.34 817.14 776.87 C 820.55 782.34 817.40 790.17 811.45 792.26 C 809.16 792.95 806.63 792.93 804.30 792.47 C 799.71 791.45 796.32 786.63 796.53 782.00 C 797.03 778.03 799.92 774.37 799.74 770.42 C 799.65 765.94 798.80 761.50 798.75 757.00 C 798.69 742.11 802.43 728.13 807.12 714.13 C 809.99 704.62 813.34 696.07 812.82 685.95 C 812.62 676.15 808.74 667.09 801.89 660.11 C 792.62 650.71 783.13 641.54 774.03 631.97 C 772.52 630.69 770.39 627.84 768.20 628.46 C 763.27 629.17 759.21 631.03 754.07 629.97 C 743.91 628.35 735.40 620.99 733.10 610.85 C 731.53 605.18 733.26 600.44 733.78 594.87 C 734.18 592.76 732.32 591.33 731.11 589.88 C 725.93 584.72 720.62 579.71 715.64 574.36 C 713.42 571.94 711.03 569.89 708.34 568.02 C 707.04 573.06 706.40 577.79 704.44 582.49 C 703.42 585.05 702.06 587.63 701.38 590.31 C 700.67 593.30 701.48 596.75 702.31 599.64 C 709.06 620.97 719.38 641.01 733.88 658.11 C 738.98 663.97 745.06 669.13 751.32 673.71 C 753.30 675.02 755.06 676.46 757.58 676.27 C 760.98 676.30 764.75 675.22 767.76 677.27 C 773.23 680.55 774.51 688.62 770.54 693.54 C 767.11 698.10 759.97 698.65 755.41 695.55 C 752.10 693.02 751.72 687.18 748.23 684.81 C 744.74 682.24 740.93 680.22 737.61 677.38 C 731.71 672.37 726.51 666.38 721.62 660.39 C 713.02 650.12 706.24 638.60 700.48 626.53 C 697.75 620.81 695.89 614.80 692.84 609.22 C 688.25 619.99 687.81 632.21 688.59 643.73 C 688.99 646.72 688.84 649.51 692.01 650.92 C 697.28 653.52 701.68 656.45 703.22 662.50 C 704.95 668.71 702.21 673.13 701.09 678.93 C 702.19 682.90 705.97 686.33 708.56 689.45 C 716.17 698.17 724.75 705.95 732.25 714.76 C 734.75 717.60 736.74 720.94 739.41 723.62 C 742.13 725.89 746.48 726.42 749.09 728.90 C 753.40 733.47 752.52 741.75 747.37 745.35 C 742.62 748.81 735.52 747.68 732.06 742.94 C 729.68 740.03 730.59 736.09 730.41 732.63 C 730.52 729.77 728.94 727.85 727.37 725.66 C 721.35 717.75 713.92 711.16 707.09 703.91 C 704.71 701.37 702.21 699.07 699.47 696.93 C 699.24 703.29 699.50 709.63 699.41 716.00 C 699.33 723.81 699.54 732.13 701.26 739.78 C 702.09 744.22 707.88 746.63 708.85 751.22 C 710.51 757.52 705.87 764.96 699.00 764.84 C 693.41 765.38 687.92 761.55 687.26 755.85 C 686.59 751.47 689.37 748.72 690.51 744.80 C 690.89 741.80 689.94 738.54 689.54 735.55 C 686.88 720.34 689.58 705.38 687.08 689.97 C 686.77 688.46 686.44 686.75 685.63 685.41 C 682.65 683.26 677.95 682.51 675.12 679.89 C 670.83 675.80 668.90 669.18 670.64 663.47 C 671.13 661.23 672.36 658.78 672.24 656.48 C 670.12 651.67 665.74 647.62 662.17 643.82 C 656.73 638.67 650.30 632.97 643.04 630.72 C 644.42 637.04 647.38 642.60 649.28 648.75 C 655.77 669.47 659.91 690.12 657.76 711.95 C 657.42 715.65 656.40 719.35 656.38 723.05 C 656.81 727.40 660.63 731.51 659.17 736.03 C 657.66 741.78 651.93 745.09 646.16 743.91 C 640.60 742.96 636.73 737.82 637.33 732.21 C 637.55 728.00 640.59 726.03 643.13 723.15 C 645.52 720.90 645.63 717.13 646.10 714.07 C 647.32 701.62 647.20 688.67 644.60 676.39 C 641.31 660.39 636.36 644.59 629.10 629.92 C 627.62 627.12 626.22 624.28 623.23 622.82 C 618.88 620.63 614.15 619.73 609.87 617.09 C 606.99 615.27 604.25 613.28 601.22 611.70 C 600.49 620.43 601.19 629.23 600.86 637.99 C 600.93 641.27 600.47 645.17 601.68 648.26 C 605.00 650.80 608.79 652.07 611.77 655.23 C 619.90 663.82 620.93 678.29 613.81 687.81 C 610.58 692.51 606.06 694.59 601.33 697.44 C 600.90 701.31 600.75 705.10 600.86 709.00 C 601.06 720.01 600.63 731.04 601.07 742.04 C 601.42 750.16 603.47 758.01 608.44 764.55 C 613.01 771.07 619.37 775.06 626.25 778.77 C 641.48 787.65 657.87 794.89 670.57 807.42 C 674.31 810.82 677.31 814.72 680.22 818.82 C 682.58 822.53 688.69 822.03 691.53 825.48 C 695.42 830.18 694.33 838.71 688.71 841.68 C 683.26 845.00 675.62 843.02 672.76 837.28 C 671.31 832.89 673.38 827.51 670.28 823.70 C 666.04 818.05 660.82 813.05 655.10 808.91 C 650.14 805.41 645.57 801.79 639.77 799.71 C 639.42 807.02 640.42 813.87 638.96 821.13 C 638.62 823.88 637.40 827.65 638.85 830.17 C 640.47 833.74 643.10 836.70 642.03 840.89 C 640.99 846.11 636.39 849.97 631.00 849.74 C 624.07 850.06 618.32 842.80 619.98 836.15 C 621.02 831.88 626.03 829.22 627.15 825.16 C 628.32 820.94 628.64 816.41 628.81 812.05 C 628.94 806.62 628.91 800.36 626.69 795.30 C 625.17 791.82 621.81 790.11 618.69 788.31 C 611.99 784.76 605.47 780.29 600.52 774.49 C 597.99 771.36 595.78 768.00 593.17 764.94 C 589.24 769.84 586.57 774.75 581.79 778.79 C 576.22 783.66 569.76 786.71 563.62 790.65 C 558.89 793.64 557.93 798.87 557.42 804.03 C 557.02 810.73 557.34 817.61 558.75 824.18 C 559.80 829.62 565.57 831.53 566.21 837.05 C 567.08 843.25 562.34 849.56 555.94 849.74 C 549.91 850.37 544.54 845.90 543.77 839.96 C 543.07 836.05 546.60 832.33 547.70 828.72 C 547.98 826.04 547.26 823.18 546.90 820.51 C 545.73 813.46 546.70 806.92 546.26 799.78 C 543.87 800.80 541.51 801.88 539.32 803.28 C 533.26 807.20 527.37 811.12 522.30 816.29 C 519.57 819.12 516.42 822.05 514.58 825.55 C 513.24 829.74 515.43 835.44 512.19 839.22 C 508.22 844.42 500.30 844.72 495.54 840.47 C 491.52 836.15 491.27 828.83 495.70 824.68 C 498.22 822.72 501.84 822.16 504.50 820.39 C 506.28 818.93 507.62 816.83 509.03 815.01 C 513.70 808.60 520.15 803.21 526.48 798.47 C 538.59 789.76 552.88 783.43 565.60 775.60 C 572.23 771.46 578.23 765.71 581.49 758.51 C 584.19 752.64 585.01 746.41 585.08 740.01 C 585.13 732.01 585.04 724.00 585.07 716.00 C 585.02 709.79 585.48 703.69 584.60 697.51 C 581.35 695.50 577.79 693.62 574.95 691.06 C 570.51 686.83 568.08 680.49 567.56 674.47 C 567.15 668.55 569.18 662.41 572.64 657.63 C 575.61 653.43 580.36 651.11 584.65 648.48 C 585.17 644.64 585.30 640.87 585.15 637.00 C 584.88 628.57 585.45 620.22 584.78 611.85 C 580.07 614.36 576.28 617.51 571.42 619.37 C 568.40 620.60 564.98 621.53 562.19 623.23 C 559.80 624.68 558.38 627.77 557.15 630.18 C 554.68 635.44 552.20 640.72 550.15 646.15 C 542.16 668.14 537.08 690.26 540.09 713.79 C 540.59 716.78 540.81 720.71 543.05 722.95 C 545.09 725.40 548.55 727.80 548.77 731.18 C 549.43 735.77 547.73 740.26 543.62 742.61 C 537.88 745.86 530.05 743.83 527.47 737.53 C 525.61 733.25 527.63 730.06 528.97 726.08 C 530.34 722.67 529.44 719.50 529.00 716.01 C 527.22 704.71 527.56 693.39 529.06 682.08 C 530.99 668.49 534.18 655.12 539.39 642.38 C 540.97 638.61 542.41 634.82 543.31 630.82 C 540.52 631.70 537.83 632.71 535.43 634.41 C 528.82 638.99 522.87 644.56 517.70 650.72 C 515.64 653.49 513.31 655.61 514.61 659.36 C 516.48 665.39 517.12 670.96 513.55 676.53 C 510.98 681.15 506.83 682.42 502.30 684.42 C 499.51 685.36 499.44 688.45 498.84 690.90 C 496.57 705.60 499.16 720.80 496.53 735.72 C 496.11 738.63 495.25 741.79 495.56 744.73 C 496.33 747.27 498.00 749.64 498.70 752.22 C 499.26 755.16 498.61 758.39 496.80 760.78 C 492.87 766.67 482.40 766.20 478.81 760.16 C 476.95 757.46 476.83 753.62 477.53 750.53 C 478.73 746.63 484.08 744.23 484.86 739.91 C 486.72 731.95 486.75 723.13 486.72 715.00 C 486.66 708.94 486.89 702.93 486.57 696.88 C 481.80 700.43 478.32 704.98 474.06 709.06 C 467.97 714.94 461.97 721.27 457.18 728.26 C 454.10 732.28 457.34 738.47 454.41 742.44 C 450.81 747.99 442.31 749.11 437.53 744.48 C 433.21 740.20 433.12 732.78 437.60 728.59 C 440.11 726.59 443.79 726.12 446.39 724.29 C 447.59 723.20 448.56 721.79 449.52 720.49 C 454.18 713.82 460.29 707.81 465.97 701.97 C 471.14 696.79 476.00 691.33 480.87 685.86 C 482.72 683.81 484.12 681.47 485.46 679.07 C 484.04 674.97 482.02 670.39 482.27 666.00 C 482.39 661.94 484.29 657.99 487.25 655.24 C 489.79 652.94 493.28 651.82 495.88 649.85 C 497.03 648.40 497.21 646.09 497.48 644.31 C 498.32 635.26 497.72 626.05 495.98 617.14 C 495.45 614.42 494.43 611.88 493.26 609.38 C 491.00 613.90 489.36 618.67 487.29 623.28 C 481.54 635.68 474.82 647.55 466.21 658.20 C 458.35 668.47 449.55 677.70 438.40 684.41 C 434.04 686.93 434.37 691.81 431.12 695.10 C 426.94 698.65 420.34 698.33 416.40 694.57 C 411.75 690.35 412.27 682.02 417.28 678.27 C 421.69 674.21 428.03 678.15 432.80 674.88 C 446.38 665.99 456.70 653.89 465.19 640.19 C 473.09 628.12 478.72 614.97 483.42 601.38 C 484.35 598.43 485.41 595.14 485.25 592.02 C 484.86 588.95 483.19 585.88 482.03 583.02 C 479.88 578.09 479.18 573.19 477.95 567.99 C 469.92 574.05 463.21 581.99 455.88 588.88 C 454.05 590.99 451.47 592.54 452.32 595.71 C 453.33 601.28 454.66 606.26 452.86 611.89 C 450.12 621.31 442.40 628.00 432.81 629.78 C 426.84 631.19 422.02 628.38 416.36 628.42 C 413.54 629.95 411.27 632.75 409.00 634.99 C 400.90 643.22 392.70 651.37 384.61 659.61 C 377.54 666.99 373.10 676.66 373.22 686.98 C 372.98 697.47 376.76 706.38 379.77 716.20 C 384.00 730.05 387.53 743.36 387.24 758.00 C 387.11 762.35 386.24 766.71 386.30 771.06 C 386.41 774.77 389.18 778.28 389.54 781.99 C 389.76 787.05 385.95 792.00 380.87 792.69 C 377.53 793.09 374.13 792.83 371.52 790.49 C 367.22 786.85 366.20 779.45 370.26 775.26 C 372.56 772.45 375.57 770.96 375.76 766.96 C 377.13 754.27 375.56 740.15 371.45 728.05 C 367.66 730.23 365.70 733.62 362.52 736.52 C 358.95 740.07 354.75 742.71 350.92 745.92 C 347.02 748.85 347.64 754.97 344.24 758.24 C 340.99 761.39 335.16 761.56 331.23 759.76 C 324.77 756.33 323.63 746.95 329.01 742.00 C 333.54 737.56 340.06 741.16 345.09 737.09 C 352.21 731.71 359.27 725.59 363.66 717.70 C 365.04 715.22 365.55 712.94 365.00 710.11 C 363.72 703.00 361.48 696.32 361.22 688.98 C 360.82 682.89 361.96 677.20 362.64 671.19 C 356.71 671.93 350.99 673.04 344.97 672.81 C 339.40 672.78 334.02 671.68 328.66 670.30 C 324.44 669.33 320.58 668.35 316.51 670.50 C 308.46 674.64 301.86 682.35 296.35 689.39 C 292.99 693.42 295.48 700.20 292.05 704.06 C 287.73 709.42 278.42 709.25 274.36 703.67 C 271.38 699.57 271.82 692.94 275.23 689.20 C 278.23 685.83 284.65 686.86 287.37 683.39 C 289.74 680.73 291.75 677.78 294.12 675.12 C 297.79 670.85 302.33 667.52 305.99 663.24 C 293.61 658.97 280.20 657.39 267.15 658.33 C 261.46 658.30 259.90 665.22 254.48 666.52 C 250.80 667.33 246.74 666.71 243.90 664.09 C 239.81 660.18 239.27 653.25 242.84 648.81 C 245.22 645.76 250.02 643.73 253.75 645.27 C 256.85 646.26 259.41 647.93 262.73 647.79 C 268.17 647.55 273.54 646.91 279.00 647.15 C 290.24 647.14 301.92 650.31 312.74 653.29 C 323.03 656.14 334.32 660.97 345.02 660.77 C 355.20 660.95 365.32 656.67 372.54 649.54 C 380.13 642.13 387.40 634.40 395.07 627.07 C 398.03 624.08 401.39 621.29 403.91 617.91 C 405.06 616.56 404.48 615.23 404.29 613.66 C 403.47 609.35 402.31 605.54 403.13 601.08 C 404.64 590.23 413.95 580.69 424.94 579.52 C 430.09 578.84 435.43 580.61 440.58 581.53 C 447.13 575.91 452.95 569.17 459.09 563.09 C 461.34 560.89 463.38 558.58 465.31 556.09 C 460.00 554.77 455.02 554.26 450.10 551.88 C 446.18 550.14 442.78 547.62 438.27 548.30 C 432.11 549.22 426.09 552.03 420.33 554.32 C 412.24 557.57 404.57 561.64 397.08 566.09 C 382.87 574.25 370.07 585.06 359.86 597.89 C 358.10 600.30 356.18 602.41 356.40 605.60 C 356.30 609.05 357.33 613.18 355.14 616.12 C 352.10 620.78 345.85 622.66 340.83 620.12 C 335.32 617.48 333.15 610.39 336.07 605.04 C 337.78 601.38 341.46 600.49 344.68 598.56 C 347.39 597.16 349.08 594.23 350.87 591.84 C 359.64 579.50 371.11 570.04 383.42 561.43 C 390.87 556.17 398.79 552.02 406.88 547.88 C 412.28 545.09 418.00 543.32 423.20 540.12 C 414.77 536.73 404.93 536.47 395.96 536.80 C 391.96 537.25 386.87 537.23 383.36 539.31 C 381.06 542.12 379.91 546.26 376.96 548.94 C 372.77 552.64 366.59 554.55 361.15 552.78 C 358.37 552.14 355.31 550.40 352.45 550.57 C 349.34 551.56 346.54 554.00 344.02 556.02 C 333.03 564.92 324.80 575.71 312.97 583.94 C 310.87 585.51 307.85 587.09 306.85 589.61 C 305.58 592.13 304.76 595.70 302.58 597.56 C 297.68 601.50 289.32 600.60 286.08 594.91 C 282.32 589.15 285.46 581.10 291.71 578.75 C 294.84 578.00 298.36 578.74 301.53 578.24 C 303.55 577.72 305.42 576.32 307.10 575.12 C 312.92 570.73 318.38 565.68 323.54 560.54 C 327.40 556.68 331.39 553.05 334.81 548.76 C 321.04 547.43 306.76 546.87 293.05 549.02 C 288.26 549.47 286.37 555.53 281.80 556.90 C 276.29 558.65 269.89 555.25 268.29 549.69 C 266.33 543.67 270.37 536.77 276.60 535.57 C 281.70 534.53 285.30 539.51 290.79 538.49 C 300.17 537.24 309.52 536.31 319.00 536.89 C 327.52 537.44 335.59 537.88 344.03 536.06 C 345.10 535.71 346.81 535.51 347.46 534.50 C 349.35 531.74 350.36 528.20 352.47 525.47 C 355.44 521.70 360.18 519.32 364.99 519.42 C 368.71 519.53 372.18 521.27 375.79 521.62 C 377.58 521.12 379.21 519.80 380.67 518.69 C 385.26 514.99 389.59 510.92 393.47 506.48 C 397.21 502.06 400.68 497.72 402.44 492.10 C 396.20 493.67 390.53 496.49 384.40 498.43 C 361.78 506.41 336.11 510.08 312.40 505.57 C 306.41 504.32 302.04 509.52 296.40 507.61 C 290.43 505.85 287.60 499.26 289.52 493.51 C 291.16 487.93 297.18 484.63 302.77 486.15 C 306.78 487.01 308.92 491.73 312.19 493.80 C 315.52 495.22 319.47 495.44 323.04 495.90 C 334.21 497.16 345.14 496.11 356.17 494.23 C 373.77 491.28 390.83 484.76 406.69 476.69 C 411.50 474.36 411.89 470.08 413.65 465.59 C 415.46 460.12 418.85 456.00 421.33 450.83 C 412.92 450.19 404.46 450.74 396.01 450.49 C 392.92 450.56 389.39 450.19 386.44 451.21 C 383.81 454.46 382.41 458.29 379.24 461.24 C 370.64 469.69 355.75 470.02 346.43 462.57 C 342.41 459.55 340.16 454.79 337.47 450.59 C 326.01 449.98 314.48 450.49 303.00 450.33 C 296.68 450.42 290.20 450.09 283.93 450.92 C 273.76 452.36 264.55 458.37 258.97 466.97 C 252.96 476.15 248.34 486.25 242.66 495.66 C 236.73 505.91 230.13 515.32 221.17 523.18 C 218.72 525.36 215.83 527.15 213.61 529.55 C 211.56 532.29 211.31 536.43 209.11 539.11 C 205.34 542.99 199.05 543.46 194.66 540.31 C 188.68 536.19 189.11 526.04 195.19 522.19 C 200.14 518.92 205.74 522.54 210.34 518.35 C 220.18 510.04 228.17 499.30 233.88 487.78 C 227.82 487.38 221.97 488.74 215.95 488.03 C 212.34 487.71 208.69 486.80 205.07 486.86 C 200.48 487.96 197.52 491.56 192.41 490.59 C 186.48 489.77 182.58 484.23 183.41 478.37 C 184.15 472.02 190.16 467.55 196.46 468.56 C 201.85 469.33 203.80 475.88 209.39 476.31 C 218.47 477.42 228.33 477.65 237.23 475.27 C 240.45 474.51 242.15 472.45 243.64 469.65 C 247.18 463.01 251.05 456.74 256.21 451.21 C 259.32 447.94 263.51 445.41 267.13 442.65 C 263.68 439.06 259.32 436.69 255.86 433.14 C 250.85 428.12 247.32 422.27 243.90 416.13 C 242.17 413.34 240.92 410.45 237.46 409.54 C 228.87 407.10 217.58 406.82 208.91 408.93 C 204.42 409.82 202.35 414.37 198.44 416.23 C 195.63 417.12 191.86 417.00 189.19 415.72 C 184.00 413.06 182.10 405.70 184.61 400.61 C 186.58 396.44 191.49 394.01 195.99 394.64 C 199.14 395.38 201.85 397.59 204.97 398.32 C 208.00 398.46 211.11 397.59 214.12 397.23 C 220.52 396.24 226.49 396.92 233.10 396.67 C 232.08 394.18 231.00 391.74 229.56 389.45 C 225.54 383.22 221.31 377.22 216.01 371.99 C 213.40 369.46 210.66 366.36 207.35 364.78 C 203.42 363.84 198.59 365.45 195.07 362.93 C 190.01 359.52 188.97 352.31 192.33 347.34 C 195.47 342.65 202.00 341.11 206.80 344.24 C 211.51 346.93 210.83 353.37 215.27 356.71 C 219.33 359.99 223.32 363.29 226.78 367.23 C 236.17 377.24 241.83 388.58 248.73 400.27 C 254.13 409.79 257.78 419.30 266.59 426.40 C 273.23 431.92 281.47 434.06 289.98 434.18 C 299.32 434.29 308.66 434.09 318.00 434.18 C 324.60 434.11 331.05 434.59 337.62 433.76 C 340.75 428.95 343.13 424.34 348.08 421.10 C 356.50 415.24 368.29 415.36 376.56 421.43 C 381.10 424.62 383.40 429.26 386.35 433.82 C 390.24 434.24 394.10 434.33 398.00 434.20 C 405.77 434.00 413.38 434.48 421.11 433.90 C 419.14 430.25 416.74 426.84 414.92 423.12 C 413.10 419.35 412.38 415.14 410.53 411.42 C 409.53 409.44 407.58 408.34 405.72 407.28 C 380.10 394.46 351.83 386.49 322.97 389.00 C 319.45 389.44 315.28 389.43 312.06 391.02 C 309.48 392.94 307.71 396.16 305.01 397.95 C 299.65 400.97 292.42 398.81 289.92 393.12 C 287.05 387.11 290.10 379.42 296.60 377.55 C 301.64 375.98 306.23 380.25 311.27 379.33 C 315.30 378.79 319.23 377.85 323.30 377.57 C 344.52 376.04 366.17 379.95 386.24 386.73 C 391.57 388.46 396.66 390.71 402.10 392.10 C 398.90 383.20 391.54 375.60 384.59 369.40 C 382.17 367.31 379.62 364.76 376.64 363.51 C 374.13 363.29 371.41 364.54 368.94 364.99 C 363.72 366.40 357.71 364.94 353.73 361.26 C 350.68 358.34 349.77 353.56 347.56 350.39 C 346.21 349.25 344.04 348.96 342.36 348.59 C 330.97 346.66 318.66 348.27 307.00 347.82 C 301.49 347.86 296.12 346.88 290.66 346.39 C 285.76 345.85 281.53 350.61 276.61 349.43 C 270.22 348.20 266.29 341.42 268.22 335.24 C 269.78 329.81 275.45 326.58 280.94 327.83 C 286.06 328.86 287.86 334.99 293.30 335.76 C 307.49 338.21 320.93 336.82 335.19 336.40 C 332.22 331.75 328.11 328.60 324.45 324.55 C 318.65 318.19 312.01 312.94 304.99 308.01 C 300.26 304.24 294.05 308.65 289.23 304.79 C 284.30 301.33 283.09 294.39 286.46 289.42 C 289.80 284.32 297.29 283.23 302.03 286.99 C 304.35 288.98 305.42 292.59 306.99 295.17 C 308.09 297.16 310.35 298.57 312.15 299.90 C 319.13 304.73 325.60 310.39 331.48 316.52 C 337.37 322.46 343.34 329.13 350.46 333.59 C 353.36 335.67 356.62 333.38 359.58 332.63 C 365.49 330.23 372.40 331.69 377.05 335.96 C 379.90 338.65 381.10 342.88 383.40 345.64 C 384.95 346.65 387.06 346.92 388.84 347.25 C 400.10 348.95 412.19 348.44 423.01 344.73 C 419.13 341.87 414.76 340.57 410.47 338.52 C 400.44 333.84 390.76 328.71 381.73 322.26 C 370.15 314.11 358.44 304.45 350.20 292.82 C 348.65 290.79 347.12 288.58 344.85 287.29 C 342.43 285.81 339.28 284.74 337.31 282.69 C 334.24 278.99 334.02 273.59 336.56 269.54 C 339.28 265.14 345.11 263.21 349.94 265.00 C 352.84 266.14 355.32 268.73 356.32 271.68 C 357.21 275.11 356.06 279.06 356.65 282.51 C 357.55 284.89 359.46 286.98 361.07 288.93 C 370.83 300.23 382.38 310.19 395.31 317.69 C 408.21 325.33 422.09 332.10 436.51 336.27 C 441.48 337.66 445.10 335.52 449.35 333.36 C 454.37 330.64 459.63 330.00 465.08 328.68 C 463.33 326.12 461.42 323.95 459.11 321.88 C 453.88 317.11 449.10 311.91 444.14 306.87 C 442.74 305.69 441.18 303.70 439.14 304.17 C 434.34 304.88 429.99 306.35 425.02 305.73 C 412.88 304.53 403.25 292.95 402.81 281.02 C 402.70 277.02 404.21 273.17 404.34 269.24 C 403.73 267.37 401.89 265.82 400.58 264.41 C 394.79 258.87 389.24 253.09 383.63 247.38 C 377.20 240.88 370.22 233.18 362.03 228.98 C 353.37 224.28 342.09 224.59 332.73 226.67 C 319.06 230.06 306.29 235.13 291.98 237.03 C 285.11 237.88 277.89 238.79 271.01 238.07 C 267.15 237.79 263.08 236.93 259.37 238.34 C 255.97 239.37 252.49 241.46 248.86 240.20 C 243.87 238.59 240.79 234.31 241.15 229.01 C 241.10 221.78 249.09 216.48 255.76 219.12 C 260.30 220.79 262.11 226.70 266.98 226.77 C 274.32 227.65 281.91 227.04 289.23 226.17 C 294.80 225.27 300.04 224.67 305.15 222.18 C 300.87 217.25 295.75 213.43 291.72 208.28 C 289.78 205.93 288.10 203.23 285.89 201.13 C 282.57 198.45 276.97 198.44 274.47 194.53 C 270.51 188.99 272.37 180.55 278.84 177.86 C 284.28 175.12 291.22 177.69 293.82 183.09 C 295.30 187.46 293.58 192.63 296.46 196.57 C 300.55 202.35 306.01 208.09 311.73 212.29 C 315.20 214.68 318.89 217.30 323.34 216.31 C 329.24 215.15 334.90 213.36 340.96 213.00 C 348.48 212.19 355.37 213.74 362.74 214.74 C 362.00 209.09 360.89 203.70 361.08 197.96 C 361.09 192.43 362.29 187.11 363.85 181.84 C 364.76 178.27 366.03 175.19 364.43 171.57 C 360.79 162.79 352.71 155.39 345.37 149.60 C 340.78 145.60 334.27 149.07 329.53 145.44 C 324.15 141.78 323.81 132.81 328.46 128.47 C 332.06 124.43 339.41 124.08 343.50 127.48 C 346.78 130.05 346.86 135.73 349.14 138.86 C 351.72 141.59 355.19 143.51 358.05 145.95 C 362.88 149.69 366.24 154.74 370.96 158.59 C 375.42 147.63 376.35 134.84 375.70 123.13 C 375.51 121.04 375.42 118.50 374.32 116.67 C 372.57 114.24 369.75 112.34 368.22 109.77 C 365.85 104.96 367.54 98.93 371.92 95.89 C 377.74 92.09 386.38 94.61 388.54 101.45 C 390.52 106.42 386.13 110.82 386.17 115.75 C 386.25 120.84 387.34 125.87 387.23 130.99 C 387.07 139.42 385.98 147.79 383.95 155.97 C 381.55 166.23 377.85 175.95 374.97 186.03 C 372.43 194.88 372.46 204.34 376.10 212.89 C 378.72 219.59 383.24 224.73 388.26 229.74 C 393.61 235.06 399.08 240.27 404.45 245.56 C 408.41 249.34 411.94 253.48 416.21 256.94 C 422.35 255.89 427.53 253.64 433.80 255.22 C 445.82 257.58 455.05 269.77 453.65 282.01 C 453.40 285.16 452.23 288.42 452.44 291.57 C 454.96 295.48 458.92 298.51 462.08 301.92 C 467.08 306.62 471.70 312.16 477.39 315.97 C 478.59 311.26 479.23 306.66 481.35 302.33 C 482.70 299.35 484.78 296.22 485.33 292.98 C 485.36 290.41 484.48 287.76 483.72 285.32 C 480.26 275.06 476.59 265.19 471.28 255.72 C 468.06 250.02 464.59 244.45 461.03 238.96 C 455.17 230.00 447.88 222.16 439.66 215.33 C 436.97 213.15 434.23 210.53 431.06 209.09 C 427.70 208.21 423.86 209.44 420.45 208.52 C 417.25 207.35 414.69 204.41 413.76 201.16 C 412.38 196.00 415.34 190.16 420.34 188.25 C 424.34 186.54 429.28 187.55 432.12 190.87 C 434.80 194.34 435.21 198.32 439.02 200.95 C 444.11 204.50 448.99 208.23 453.42 212.60 C 467.57 226.69 478.10 243.26 486.85 261.12 C 489.14 266.09 490.77 271.30 493.28 276.18 C 497.65 266.83 497.65 255.08 497.28 244.96 C 496.85 241.63 497.10 236.21 493.67 234.39 C 489.72 231.66 485.88 229.89 483.71 225.29 C 481.08 219.83 482.19 214.59 484.00 209.12 C 485.46 205.52 482.83 202.86 480.98 200.03 C 472.24 188.65 460.82 179.40 451.77 168.24 C 450.02 166.08 448.47 163.57 446.41 161.69 C 443.35 159.48 438.17 159.54 435.74 156.25 C 431.97 151.82 432.57 144.73 436.93 140.93 C 441.62 136.75 449.62 137.54 453.30 142.69 C 456.46 147.03 453.96 153.56 457.28 157.69 C 464.02 167.22 472.49 174.20 480.38 182.62 C 482.11 184.42 484.08 185.93 486.12 187.35 C 486.74 180.85 486.43 174.52 486.50 168.00 C 486.57 160.69 486.09 153.31 484.84 146.10 C 484.30 141.21 478.74 139.38 477.27 134.69 C 475.40 128.66 479.33 121.76 485.62 120.61 C 491.82 119.37 498.27 123.70 498.81 130.16 C 499.51 135.37 494.69 138.72 495.45 143.75 C 495.83 147.84 496.65 151.86 496.97 155.96 C 498.01 166.59 496.90 177.27 497.52 187.86 C 497.90 191.69 498.37 196.19 500.42 199.52 C 502.32 201.10 505.03 201.77 507.23 202.88 C 513.30 205.49 517.03 212.47 515.95 218.97 C 515.57 222.19 514.25 225.48 514.32 228.72 C 515.41 231.75 518.16 234.33 520.28 236.71 C 526.66 243.52 534.24 250.56 542.99 254.12 C 541.39 246.80 538.16 240.07 536.16 232.83 C 530.48 213.68 526.24 192.40 528.45 172.41 C 528.75 168.96 529.60 165.43 529.47 161.96 C 528.83 158.09 525.53 154.40 526.25 150.24 C 527.01 144.47 532.15 140.14 538.01 140.56 C 544.26 140.80 549.32 146.32 548.57 152.61 C 548.11 158.44 541.71 160.29 540.82 165.91 C 537.30 184.52 540.32 203.78 545.05 221.90 C 547.85 233.07 551.78 243.91 556.64 254.34 C 558.08 257.13 559.78 260.77 562.73 262.20 C 566.87 264.26 571.44 265.11 575.51 267.52 C 578.60 269.37 581.51 271.50 584.71 273.17 C 585.18 265.46 584.71 257.74 584.88 250.00 C 584.98 245.77 584.97 241.56 584.71 237.34 C 581.47 235.32 577.89 233.51 575.03 230.97 C 568.95 224.99 566.00 216.06 567.79 207.65 C 569.20 201.30 572.93 195.04 578.67 191.73 C 580.56 190.44 583.14 189.41 584.53 187.57 C 585.12 184.80 584.94 181.81 584.95 178.99 C 584.76 167.65 585.04 156.30 584.86 144.95 C 584.74 136.04 582.27 127.33 576.76 120.23 C 570.07 111.37 558.53 106.22 548.94 101.06 C 534.31 93.25 518.67 83.86 508.82 70.19 C 507.68 68.77 506.50 67.14 504.99 66.09 C 502.09 64.36 497.96 63.85 495.42 61.61 C 490.81 57.04 491.60 48.65 496.86 44.88 C 501.62 41.39 508.39 42.34 512.00 47.00 C 515.65 51.48 512.55 58.19 516.48 62.49 C 521.27 68.44 526.40 73.93 532.75 78.25 C 537.30 81.28 541.05 84.53 546.47 85.90 C 546.45 79.84 545.65 74.31 546.38 68.27 C 546.73 64.59 547.81 60.76 547.61 57.08 C 546.96 53.62 544.29 50.53 543.77 46.98 C 543.68 43.13 545.46 38.91 548.75 36.74 C 552.87 34.05 558.73 34.36 562.56 37.43 Z" fill="#a4a4a4"/>
    <path d="M 676.68 243.12 C 676.85 249.76 676.39 256.28 677.22 262.90 C 678.57 274.70 682.17 286.95 687.36 297.64 C 690.81 304.86 695.61 310.41 694.78 318.96 C 694.36 326.90 687.66 331.58 681.80 335.82 C 672.83 341.96 662.95 349.80 651.77 350.68 C 635.36 352.60 617.60 342.68 612.25 326.72 C 608.96 316.84 606.75 306.41 606.42 295.99 C 606.28 291.30 606.98 286.88 610.47 283.47 C 616.75 276.95 627.54 275.22 635.64 271.63 C 645.18 267.35 654.47 262.18 662.70 255.71 C 667.71 251.85 671.64 246.95 676.68 243.12 Z" fill="#ffffff"/>
    <path d="M 509.56 243.82 C 514.21 246.73 517.45 250.93 521.69 254.31 C 529.94 261.09 539.30 266.55 548.97 271.02 C 555.72 274.15 563.21 275.77 569.74 279.27 C 574.65 282.01 578.97 286.25 579.61 292.11 C 580.37 299.33 578.77 307.17 577.25 314.23 C 575.78 320.69 574.04 327.85 570.51 333.52 C 565.94 340.67 559.05 346.29 550.97 348.99 C 540.41 352.91 528.30 350.80 518.68 345.32 C 512.05 341.48 505.83 336.88 499.67 332.33 C 495.44 329.09 491.91 325.44 491.33 319.88 C 490.46 313.50 492.83 308.22 495.77 302.76 C 499.91 295.34 503.18 287.66 505.47 279.46 C 508.92 267.79 509.57 255.92 509.56 243.82 Z" fill="#ffffff"/>
    <path d="M 715.50 342.77 C 722.69 341.11 728.99 343.37 735.22 346.79 C 747.15 352.88 759.64 357.39 773.01 358.92 C 780.40 359.91 787.56 359.33 794.97 359.51 C 792.17 362.54 789.15 365.33 786.24 368.25 C 776.52 378.43 769.65 390.52 764.59 403.59 C 761.87 410.78 760.42 418.22 755.16 424.17 C 751.97 427.80 747.77 429.70 742.93 429.73 C 735.61 429.75 728.22 428.32 721.03 427.01 C 711.70 425.18 702.72 422.04 695.96 415.04 C 689.14 407.69 684.58 398.19 685.24 387.97 C 685.47 376.29 693.24 365.06 700.13 356.12 C 704.25 351.03 708.71 344.27 715.50 342.77 Z" fill="#ffffff"/>
    <path d="M 470.98 342.87 C 475.66 343.79 478.45 347.19 481.35 350.64 C 488.30 359.34 495.48 368.25 499.14 378.91 C 504.39 393.76 497.36 410.98 484.66 419.67 C 477.80 424.45 469.78 426.20 461.70 427.73 C 455.31 428.86 448.51 430.09 442.01 429.69 C 437.93 429.46 434.18 427.56 431.39 424.61 C 427.53 420.58 425.35 414.71 423.51 409.52 C 418.66 394.93 411.15 380.66 400.78 369.22 C 397.92 366.19 394.86 363.47 392.54 359.97 C 400.28 359.34 407.86 360.03 415.55 358.60 C 427.47 356.86 438.77 353.00 449.45 347.46 C 456.29 343.91 463.13 341.31 470.98 342.87 Z" fill="#ffffff"/>
    <path d="M 583.41 397.48 C 590.74 395.97 598.60 396.04 605.79 398.18 C 620.89 402.49 632.79 415.19 636.77 430.27 C 639.93 441.73 638.46 454.32 632.73 464.73 C 626.04 477.12 613.66 485.59 599.78 487.70 C 582.39 490.56 564.13 482.04 554.88 467.11 C 548.41 457.26 546.34 444.63 548.51 433.13 C 552.08 415.75 565.96 401.22 583.41 397.48 Z" fill="#ffffff"/>
    <path d="M 455.05 455.87 C 464.81 457.49 474.36 458.80 482.95 464.05 C 490.01 468.14 494.74 474.63 498.06 481.95 C 501.13 488.72 501.65 496.66 499.81 503.84 C 496.83 513.77 491.30 521.88 484.82 529.82 C 481.58 533.74 478.02 539.09 473.29 541.23 C 466.09 544.05 458.90 542.11 452.35 538.66 C 440.93 532.52 428.77 528.03 415.92 526.09 C 407.94 524.85 400.16 525.39 392.00 524.76 C 396.30 519.45 401.49 515.06 405.62 509.61 C 412.08 501.50 416.94 492.36 420.74 482.75 C 423.46 476.12 425.47 468.44 429.56 462.56 C 431.76 459.31 434.82 456.75 438.63 455.65 C 443.73 454.11 449.85 455.17 455.05 455.87 Z" fill="#ffffff"/>
    <path d="M 748.16 455.84 C 752.67 457.41 755.81 460.83 758.08 464.92 C 761.60 471.33 763.54 478.74 766.49 485.47 C 770.42 494.97 775.86 503.72 782.25 511.75 C 785.95 516.41 790.52 520.22 794.08 525.02 C 786.34 525.42 778.79 524.80 771.08 526.08 C 758.17 527.80 745.83 532.17 734.45 538.45 C 729.60 541.15 724.67 543.17 718.98 542.73 C 713.31 542.59 709.37 539.23 705.74 535.26 C 698.63 527.14 691.82 518.30 687.79 508.21 C 684.79 500.94 684.26 492.38 686.85 484.91 C 689.68 476.81 694.58 469.59 701.81 464.82 C 710.49 459.15 721.00 457.63 731.01 455.94 C 736.64 455.11 742.65 453.83 748.16 455.84 Z" fill="#ffffff"/>
    <path d="M 544.01 533.83 C 551.53 534.85 558.75 538.62 564.44 543.57 C 569.57 548.04 572.68 553.95 574.63 560.39 C 576.96 568.10 578.75 576.14 579.83 584.12 C 580.41 589.12 580.71 594.42 577.85 598.84 C 574.19 604.44 568.17 606.91 562.17 609.19 C 554.02 612.13 545.95 615.17 538.32 619.31 C 527.39 625.01 518.20 632.91 509.82 641.85 C 509.30 634.92 509.72 628.12 508.70 621.22 C 506.85 607.88 502.64 594.73 496.03 582.97 C 492.79 576.85 490.22 570.53 491.65 563.47 C 492.97 557.57 497.74 553.77 502.32 550.32 C 509.28 545.28 516.46 539.64 524.43 536.41 C 530.59 533.84 537.39 532.95 544.01 533.83 Z" fill="#ffffff"/>
    <path d="M 652.01 533.87 C 664.15 535.27 674.12 543.32 683.62 550.37 C 688.73 554.44 694.66 558.88 694.85 566.05 C 695.61 576.25 688.67 584.14 685.12 593.13 C 681.15 603.29 677.96 614.07 676.96 624.97 C 676.43 630.38 676.73 635.75 676.40 641.18 C 672.40 638.30 669.51 634.38 665.70 631.29 C 655.20 622.46 643.24 616.45 630.55 611.46 C 624.60 609.14 617.66 607.38 612.60 603.38 C 609.01 600.60 606.55 596.59 606.29 591.99 C 605.80 584.68 607.38 577.01 608.79 569.85 C 610.70 561.01 613.51 551.64 620.08 545.09 C 628.49 536.89 640.18 532.08 652.01 533.87 Z" fill="#ffffff"/>
</svg>